{
    "asset" : {
        "generator" : "Khronos glTF Blender I/O v1.4.40",
        "version" : "2.0"
    },
    "scene" : 0,
    "scenes" : [
        {
            "name" : "Scene",
            "nodes" : [
                0
            ]
        }
    ],
    "nodes" : [
        {
            "mesh" : 0,
            "name" : "Cube"
        }
    ],
    "meshes" : [
        {
            "name" : "Cube.001",
            "primitives" : [
                {
                    "attributes" : {
                        "POSITION" : 0,
                        "NORMAL" : 1,
                        "TEXCOORD_0" : 2
                    },
                    "indices" : 3
                }
            ]
        }
    ],
    "accessors" : [
        {
            "bufferView" : 0,
            "componentType" : 5126,
            "count" : 39,
            "max" : [
                0.15357738733291626,
                0.2979048788547516,
                0.15913373231887817
            ],
            "min" : [
                -0.15716369450092316,
                -0.12523452937602997,
                -0.16352656483650208
            ],
            "type" : "VEC3"
        },
        {
            "bufferView" : 1,
            "componentType" : 5126,
            "count" : 39,
            "type" : "VEC3"
        },
        {
            "bufferView" : 2,
            "componentType" : 5126,
            "count" : 39,
            "type" : "VEC2"
        },
        {
            "bufferView" : 3,
            "componentType" : 5123,
            "count" : 144,
            "type" : "SCALAR"
        }
    ],
    "bufferViews" : [
        {
            "buffer" : 0,
            "byteLength" : 468,
            "byteOffset" : 0
        },
        {
            "buffer" : 0,
            "byteLength" : 468,
            "byteOffset" : 468
        },
        {
            "buffer" : 0,
            "byteLength" : 312,
            "byteOffset" : 936
        },
        {
            "buffer" : 0,
            "byteLength" : 288,
            "byteOffset" : 1248
        }
    ],
    "buffers" : [
        {
            "byteLength" : 1536,
            "uri" : "data:application/octet-stream;base64,"
        }
    ]
}
