{
    "asset" : {
        "generator" : "Khronos glTF Blender I/O v1.4.40",
        "version" : "2.0"
    },
    "scene" : 0,
    "scenes" : [
        {
            "name" : "Scene",
            "nodes" : [
                0
            ]
        }
    ],
    "nodes" : [
        {
            "mesh" : 0,
            "name" : "Cube"
        }
    ],
    "meshes" : [
        {
            "name" : "Cube.004",
            "primitives" : [
                {
                    "attributes" : {
                        "POSITION" : 0,
                        "NORMAL" : 1
                    },
                    "indices" : 2
                }
            ]
        }
    ],
    "accessors" : [
        {
            "bufferView" : 0,
            "componentType" : 5126,
            "count" : 802,
            "max" : [
                1.4493920803070068,
                4.538365364074707,
                0.25000104308128357
            ],
            "min" : [
                -1.4005968570709229,
                -0.08460678160190582,
                -2.2692959308624268
            ],
            "type" : "VEC3"
        },
        {
            "bufferView" : 1,
            "componentType" : 5126,
            "count" : 802,
            "type" : "VEC3"
        },
        {
            "bufferView" : 2,
            "componentType" : 5123,
            "count" : 1272,
            "type" : "SCALAR"
        }
    ],
    "bufferViews" : [
        {
            "buffer" : 0,
            "byteLength" : 9624,
            "byteOffset" : 0
        },
        {
            "buffer" : 0,
            "byteLength" : 9624,
            "byteOffset" : 9624
        },
        {
            "buffer" : 0,
            "byteLength" : 2544,
            "byteOffset" : 19248
        }
    ],
    "buffers" : [
        {
            "byteLength" : 21792,
            "uri" : "data:application/octet-stream;base64,"
        }
    ]
}
