{
    "asset" : {
        "generator" : "Khronos glTF Blender I/O v1.4.40",
        "version" : "2.0"
    },
    "scene" : 0,
    "scenes" : [
        {
            "name" : "Scene",
            "nodes" : [
                0
            ]
        }
    ],
    "nodes" : [
        {
            "mesh" : 0,
            "name" : "Text"
        }
    ],
    "meshes" : [
        {
            "name" : "Text",
            "primitives" : [
                {
                    "attributes" : {
                        "POSITION" : 0,
                        "NORMAL" : 1,
                        "TEXCOORD_0" : 2
                    },
                    "indices" : 3
                }
            ]
        }
    ],
    "accessors" : [
        {
            "bufferView" : 0,
            "componentType" : 5126,
            "count" : 5077,
            "max" : [
                3.99544095993042,
                0.15081217885017395,
                2.2544984817504883
            ],
            "min" : [
                -4.1482720375061035,
                -0.19400298595428467,
                -1.7229030132293701
            ],
            "type" : "VEC3"
        },
        {
            "bufferView" : 1,
            "componentType" : 5126,
            "count" : 5077,
            "type" : "VEC3"
        },
        {
            "bufferView" : 2,
            "componentType" : 5126,
            "count" : 5077,
            "type" : "VEC2"
        },
        {
            "bufferView" : 3,
            "componentType" : 5123,
            "count" : 11175,
            "type" : "SCALAR"
        }
    ],
    "bufferViews" : [
        {
            "buffer" : 0,
            "byteLength" : 60924,
            "byteOffset" : 0
        },
        {
            "buffer" : 0,
            "byteLength" : 60924,
            "byteOffset" : 60924
        },
        {
            "buffer" : 0,
            "byteLength" : 40616,
            "byteOffset" : 121848
        },
        {
            "buffer" : 0,
            "byteLength" : 22350,
            "byteOffset" : 162464
        }
    ],
    "buffers" : [
        {
            "byteLength" : 184816,
            "uri" : "data:application/octet-stream;base64,"
        }
    ]
}
