{
    "asset" : {
        "generator" : "Khronos glTF Blender I/O v1.4.40",
        "version" : "2.0"
    },
    "scene" : 0,
    "scenes" : [
        {
            "name" : "Scene",
            "nodes" : [
                0
            ]
        }
    ],
    "nodes" : [
        {
            "mesh" : 0,
            "name" : "Cube"
        }
    ],
    "meshes" : [
        {
            "name" : "Cube.001",
            "primitives" : [
                {
                    "attributes" : {
                        "POSITION" : 0,
                        "NORMAL" : 1
                    },
                    "indices" : 2
                }
            ]
        }
    ],
    "accessors" : [
        {
            "bufferView" : 0,
            "componentType" : 5126,
            "count" : 1061,
            "max" : [
                1.7186434268951416,
                1.1344949007034302,
                3.1224935054779053
            ],
            "min" : [
                -1.6862467527389526,
                -1.1841272115707397,
                -0.25
            ],
            "type" : "VEC3"
        },
        {
            "bufferView" : 1,
            "componentType" : 5126,
            "count" : 1061,
            "type" : "VEC3"
        },
        {
            "bufferView" : 2,
            "componentType" : 5123,
            "count" : 1539,
            "type" : "SCALAR"
        }
    ],
    "bufferViews" : [
        {
            "buffer" : 0,
            "byteLength" : 12732,
            "byteOffset" : 0
        },
        {
            "buffer" : 0,
            "byteLength" : 12732,
            "byteOffset" : 12732
        },
        {
            "buffer" : 0,
            "byteLength" : 3078,
            "byteOffset" : 25464
        }
    ],
    "buffers" : [
        {
            "byteLength" : 28544,
            "uri" : "data:application/octet-stream;base64,"
        }
    ]
}
